<?xml version="1.0" standalone="yes"?>

<svg version="1.1" viewBox="0.0 0.0 960.0 720.0" fill="none" stroke="none" stroke-linecap="square" stroke-miterlimit="10" xmlns="http://www.w3.org/2000/svg" xmlns:xlink="http://www.w3.org/1999/xlink"><clipPath id="p.0"><path d="m0 0l960.0 0l0 720.0l-960.0 0l0 -720.0z" clip-rule="nonzero"></path></clipPath><g clip-path="url(#p.0)"><path fill="#000000" fill-opacity="0.0" d="m0 0l960.0 0l0 720.0l-960.0 0z" fill-rule="nonzero"></path><path fill="#cfe2f3" d="m51.692913 109.26015l0 0c0 -8.488831 6.8815575 -15.370384 15.370388 -15.370384l845.92065 0c4.076477 0 7.986023 1.6193771 10.86853 4.5018845c2.8825073 2.8825073 4.501892 6.7920227 4.501892 10.8685l0 61.479706c0 8.488831 -6.881592 15.370392 -15.370422 15.370392l-845.92065 0c-8.488831 0 -15.370388 -6.8815613 -15.370388 -15.370392z" fill-rule="nonzero"></path><path stroke="#000000" stroke-width="2.0" stroke-linejoin="round" stroke-linecap="butt" d="m51.692913 109.26015l0 0c0 -8.488831 6.8815575 -15.370384 15.370388 -15.370384l845.92065 0c4.076477 0 7.986023 1.6193771 10.86853 4.5018845c2.8825073 2.8825073 4.501892 6.7920227 4.501892 10.8685l0 61.479706c0 8.488831 -6.881592 15.370392 -15.370422 15.370392l-845.92065 0c-8.488831 0 -15.370388 -6.8815613 -15.370388 -15.370392z" fill-rule="nonzero"></path><path fill="#000000" d="m66.69475 126.86l0 -11.453125l1.515625 0l0 11.453125l-1.515625 0zm3.7421875 0.6875l1.375 0.203125q0.078125 0.640625 0.46875 0.921875q0.53125 0.390625 1.4375 0.390625q0.96875 0 1.5 -0.390625q0.53125 -0.390625 0.71875 -1.09375q0.109375 -0.421875 0.109375 -1.8125q-0.921875 1.09375 -2.296875 1.09375q-1.71875 0 -2.65625 -1.234375q-0.9375 -1.234375 -0.9375 -2.96875q0 -1.1875 0.421875 -2.1875q0.4375 -1.0 1.25 -1.546875q0.828125 -0.546875 1.921875 -0.546875q1.46875 0 2.421875 1.1875l0 -1.0l1.296875 0l0 7.171875q0 1.9375 -0.390625 2.75q-0.390625 0.8125 -1.25 1.28125q-0.859375 0.46875 -2.109375 0.46875q-1.484375 0 -2.40625 -0.671875q-0.90625 -0.671875 -0.875 -2.015625zm1.171875 -4.984375q0 1.625 0.640625 2.375q0.65625 0.75 1.625 0.75q0.96875 0 1.625 -0.734375q0.65625 -0.75 0.65625 -2.34375q0 -1.53125 -0.671875 -2.296875q-0.671875 -0.78125 -1.625 -0.78125q-0.9375 0 -1.59375 0.765625q-0.65625 0.765625 -0.65625 2.265625zm7.9921875 4.296875l0 -8.296875l1.265625 0l0 1.171875q0.90625 -1.359375 2.640625 -1.359375q0.75 0 1.375 0.265625q0.625 0.265625 0.9375 0.703125q0.3125 0.4375 0.4375 1.046875q0.078125 0.390625 0.078125 1.359375l0 5.109375l-1.40625 0l0 -5.046875q0 -0.859375 -0.171875 -1.28125q-0.15625 -0.4375 -0.578125 -0.6875q-0.40625 -0.25 -0.96875 -0.25q-0.90625 0 -1.5625 0.578125q-0.640625 0.5625 -0.640625 2.15625l0 4.53125l-1.40625 0zm8.8984375 -9.84375l0 -1.609375l1.40625 0l0 1.609375l-1.40625 0zm0 9.84375l0 -8.296875l1.40625 0l0 8.296875l-1.40625 0zm6.6171875 -1.265625l0.203125 1.25q-0.59375 0.125 -1.0625 0.125q-0.765625 0 -1.1875 -0.234375q-0.421875 -0.25 -0.59375 -0.640625q-0.171875 -0.40625 -0.171875 -1.671875l0 -4.765625l-1.03125 0l0 -1.09375l1.03125 0l0 -2.0625l1.40625 -0.84375l0 2.90625l1.40625 0l0 1.09375l-1.40625 0l0 4.84375q0 0.609375 0.0625 0.78125q0.078125 0.171875 0.25 0.28125q0.171875 0.09375 0.484375 0.09375q0.234375 0 0.609375 -0.0625zm1.3828125 -8.578125l0 -1.609375l1.40625 0l0 1.609375l-1.40625 0zm0 9.84375l0 -8.296875l1.40625 0l0 8.296875l-1.40625 0zm3.0234375 -4.15625q0 -2.296875 1.28125 -3.40625q1.078125 -0.921875 2.609375 -0.921875q1.71875 0 2.796875 1.125q1.09375 1.109375 1.09375 3.09375q0 1.59375 -0.484375 2.515625q-0.484375 0.921875 -1.40625 1.4375q-0.90625 0.5 -2.0 0.5q-1.734375 0 -2.8125 -1.109375q-1.078125 -1.125 -1.078125 -3.234375zm1.453125 0q0 1.59375 0.6875 2.390625q0.703125 0.796875 1.75 0.796875q1.046875 0 1.734375 -0.796875q0.703125 -0.796875 0.703125 -2.4375q0 -1.53125 -0.703125 -2.328125q-0.6875 -0.796875 -1.734375 -0.796875q-1.046875 0 -1.75 0.796875q-0.6875 0.78125 -0.6875 2.375zm7.9765625 4.15625l0 -8.296875l1.265625 0l0 1.171875q0.90625 -1.359375 2.640625 -1.359375q0.75 0 1.375 0.265625q0.625 0.265625 0.9375 0.703125q0.3125 0.4375 0.4375 1.046875q0.078125 0.390625 0.078125 1.359375l0 5.109375l-1.40625 0l0 -5.046875q0 -0.859375 -0.171875 -1.28125q-0.15625 -0.4375 -0.578125 -0.6875q-0.40625 -0.25 -0.96875 -0.25q-0.90625 0 -1.5625 0.578125q-0.640625 0.5625 -0.640625 2.15625l0 4.53125l-1.40625 0z" fill-rule="nonzero"></path><path fill="#000000" d="m66.25725 165.3l0 -9.3125l6.28125 0l0 1.109375l-5.046875 0l0 2.875l4.375 0l0 1.09375l-4.375 0l0 4.234375l-1.234375 0zm7.5163574 -3.375q0 -1.875 1.03125 -2.765625q0.875 -0.75 2.125 -0.75q1.390625 0 2.265625 0.90625q0.890625 0.90625 0.890625 2.515625q0 1.296875 -0.390625 2.046875q-0.390625 0.75 -1.140625 1.171875q-0.75 0.40625 -1.625 0.40625q-1.421875 0 -2.296875 -0.90625q-0.859375 -0.90625 -0.859375 -2.625zm1.171875 0q0 1.296875 0.5625 1.953125q0.5625 0.640625 1.421875 0.640625q0.84375 0 1.40625 -0.640625q0.578125 -0.65625 0.578125 -1.984375q0 -1.25 -0.578125 -1.890625q-0.5625 -0.65625 -1.40625 -0.65625q-0.859375 0 -1.421875 0.640625q-0.5625 0.640625 -0.5625 1.9375zm6.6468506 3.375l0 -6.734375l1.03125 0l0 1.015625q0.390625 -0.71875 0.71875 -0.9375q0.34375 -0.234375 0.734375 -0.234375q0.578125 0 1.171875 0.359375l-0.390625 1.0625q-0.421875 -0.25 -0.828125 -0.25q-0.375 0 -0.6875 0.234375q-0.296875 0.21875 -0.421875 0.625q-0.1875 0.609375 -0.1875 1.328125l0 3.53125l-1.140625 0zm12.141357 0l-1.140625 0l0 -7.28125q-0.421875 0.390625 -1.09375 0.796875q-0.65625 0.390625 -1.1875 0.578125l0 -1.109375q0.953125 -0.4375 1.671875 -1.078125q0.71875 -0.640625 1.015625 -1.25l0.734375 0l0 9.34375zm7.2404633 0l0 -9.3125l1.84375 0l2.203125 6.59375q0.3125 0.921875 0.453125 1.375q0.15625 -0.5 0.484375 -1.484375l2.234375 -6.484375l1.65625 0l0 9.3125l-1.1875 0l0 -7.78125l-2.703125 7.78125l-1.109375 0l-2.6875 -7.921875l0 7.921875l-1.1875 0zm15.383682 -0.828125q-0.625 0.53125 -1.21875 0.765625q-0.578125 0.21875 -1.25 0.21875q-1.125 0 -1.71875 -0.546875q-0.59375 -0.546875 -0.59375 -1.390625q0 -0.484375 0.21875 -0.890625q0.234375 -0.421875 0.59375 -0.671875q0.375 -0.25 0.828125 -0.375q0.328125 -0.078125 1.015625 -0.171875q1.375 -0.15625 2.03125 -0.390625q0.015625 -0.234375 0.015625 -0.296875q0 -0.703125 -0.328125 -0.984375q-0.4375 -0.390625 -1.296875 -0.390625q-0.8125 0 -1.203125 0.28125q-0.375 0.28125 -0.5625 1.0l-1.109375 -0.140625q0.140625 -0.71875 0.484375 -1.15625q0.359375 -0.453125 1.015625 -0.6875q0.671875 -0.234375 1.53125 -0.234375q0.875 0 1.40625 0.203125q0.546875 0.203125 0.796875 0.515625q0.25 0.296875 0.359375 0.765625q0.046875 0.296875 0.046875 1.0625l0 1.515625q0 1.59375 0.078125 2.015625q0.078125 0.421875 0.28125 0.8125l-1.1875 0q-0.171875 -0.359375 -0.234375 -0.828125zm-0.09375 -2.5625q-0.625 0.265625 -1.859375 0.4375q-0.703125 0.109375 -1.0 0.234375q-0.296875 0.125 -0.453125 0.375q-0.15625 0.234375 -0.15625 0.53125q0 0.453125 0.34375 0.765625q0.34375 0.296875 1.015625 0.296875q0.65625 0 1.171875 -0.28125q0.515625 -0.296875 0.765625 -0.796875q0.171875 -0.375 0.171875 -1.140625l0 -0.421875zm3.1156006 3.390625l0 -6.734375l1.03125 0l0 0.953125q0.734375 -1.109375 2.140625 -1.109375q0.609375 0 1.109375 0.21875q0.515625 0.21875 0.765625 0.578125q0.265625 0.34375 0.359375 0.84375q0.0625 0.3125 0.0625 1.109375l0 4.140625l-1.140625 0l0 -4.09375q0 -0.703125 -0.140625 -1.046875q-0.125 -0.34375 -0.46875 -0.546875q-0.328125 -0.21875 -0.78125 -0.21875q-0.734375 0 -1.265625 0.46875q-0.53125 0.453125 -0.53125 1.75l0 3.6875l-1.140625 0zm11.803101 -0.828125q-0.625 0.53125 -1.21875 0.765625q-0.578125 0.21875 -1.25 0.21875q-1.125 0 -1.71875 -0.546875q-0.59375 -0.546875 -0.59375 -1.390625q0 -0.484375 0.21875 -0.890625q0.234375 -0.421875 0.59375 -0.671875q0.375 -0.25 0.828125 -0.375q0.328125 -0.078125 1.015625 -0.171875q1.375 -0.15625 2.03125 -0.390625q0.015625 -0.234375 0.015625 -0.296875q0 -0.703125 -0.328125 -0.984375q-0.4375 -0.390625 -1.296875 -0.390625q-0.8125 0 -1.203125 0.28125q-0.375 0.28125 -0.5625 1.0l-1.109375 -0.140625q0.140625 -0.71875 0.484375 -1.15625q0.359375 -0.453125 1.015625 -0.6875q0.671875 -0.234375 1.53125 -0.234375q0.875 0 1.40625 0.203125q0.546875 0.203125 0.796875 0.515625q0.25 0.296875 0.359375 0.765625q0.046875 0.296875 0.046875 1.0625l0 1.515625q0 1.59375 0.078125 2.015625q0.078125 0.421875 0.28125 0.8125l-1.1875 0q-0.171875 -0.359375 -0.234375 -0.828125zm-0.09375 -2.5625q-0.625 0.265625 -1.859375 0.4375q-0.703125 0.109375 -1.0 0.234375q-0.296875 0.125 -0.453125 0.375q-0.15625 0.234375 -0.15625 0.53125q0 0.453125 0.34375 0.765625q0.34375 0.296875 1.015625 0.296875q0.65625 0 1.171875 -0.28125q0.515625 -0.296875 0.765625 -0.796875q0.171875 -0.375 0.171875 -1.140625l0 -0.421875zm3.4124756 3.390625l0 -1.296875l1.296875 0l0 1.296875q0 0.71875 -0.25 1.15625q-0.25 0.4375 -0.8125 0.6875l-0.3125 -0.484375q0.359375 -0.171875 0.53125 -0.484375q0.171875 -0.296875 0.1875 -0.875l-0.640625 0zm13.89035 -3.265625l1.234375 0.3125q-0.390625 1.515625 -1.40625 2.3125q-1.0 0.796875 -2.453125 0.796875q-1.5 0 -2.453125 -0.609375q-0.9375 -0.609375 -1.4375 -1.765625q-0.484375 -1.171875 -0.484375 -2.5q0 -1.453125 0.5625 -2.53125q0.5625 -1.09375 1.578125 -1.65625q1.03125 -0.5625 2.265625 -0.5625q1.390625 0 2.34375 0.71875q0.953125 0.703125 1.328125 2.0l-1.21875 0.28125q-0.328125 -1.015625 -0.9375 -1.46875q-0.609375 -0.46875 -1.546875 -0.46875q-1.078125 0 -1.796875 0.515625q-0.71875 0.515625 -1.015625 1.375q-0.28125 0.859375 -0.28125 1.78125q0 1.1875 0.34375 2.078125q0.34375 0.890625 1.0625 1.328125q0.734375 0.4375 1.59375 0.4375q1.03125 0 1.75 -0.59375q0.71875 -0.609375 0.96875 -1.78125zm2.8282776 3.265625l0 -6.734375l1.03125 0l0 1.015625q0.390625 -0.71875 0.71875 -0.9375q0.34375 -0.234375 0.734375 -0.234375q0.578125 0 1.171875 0.359375l-0.390625 1.0625q-0.421875 -0.25 -0.828125 -0.25q-0.375 0 -0.6875 0.234375q-0.296875 0.21875 -0.421875 0.625q-0.1875 0.609375 -0.1875 1.328125l0 3.53125l-1.140625 0zm9.06337 -2.171875l1.1875 0.140625q-0.28125 1.046875 -1.046875 1.625q-0.75 0.5625 -1.921875 0.5625q-1.484375 0 -2.359375 -0.90625q-0.859375 -0.921875 -0.859375 -2.5625q0 -1.703125 0.875 -2.640625q0.890625 -0.9375 2.28125 -0.9375q1.359375 0 2.203125 0.921875q0.859375 0.921875 0.859375 2.578125q0 0.109375 0 0.3125l-5.03125 0q0.0625 1.109375 0.625 1.703125q0.5625 0.59375 1.40625 0.59375q0.640625 0 1.078125 -0.328125q0.453125 -0.34375 0.703125 -1.0625zm-3.75 -1.84375l3.765625 0q-0.078125 -0.859375 -0.4375 -1.28125q-0.546875 -0.65625 -1.40625 -0.65625q-0.796875 0 -1.328125 0.53125q-0.53125 0.515625 -0.59375 1.40625zm10.943726 3.1875q-0.625 0.53125 -1.21875 0.765625q-0.578125 0.21875 -1.25 0.21875q-1.125 0 -1.71875 -0.546875q-0.59375 -0.546875 -0.59375 -1.390625q0 -0.484375 0.21875 -0.890625q0.234375 -0.421875 0.59375 -0.671875q0.375 -0.25 0.828125 -0.375q0.328125 -0.078125 1.015625 -0.171875q1.375 -0.15625 2.03125 -0.390625q0.015625 -0.234375 0.015625 -0.296875q0 -0.703125 -0.328125 -0.984375q-0.4375 -0.390625 -1.296875 -0.390625q-0.8125 0 -1.203125 0.28125q-0.375 0.28125 -0.5625 1.0l-1.109375 -0.140625q0.140625 -0.71875 0.484375 -1.15625q0.359375 -0.453125 1.015625 -0.6875q0.671875 -0.234375 1.53125 -0.234375q0.875 0 1.40625 0.203125q0.546875 0.203125 0.796875 0.515625q0.25 0.296875 0.359375 0.765625q0.046875 0.296875 0.046875 1.0625l0 1.515625q0 1.59375 0.078125 2.015625q0.078125 0.421875 0.28125 0.8125l-1.1875 0q-0.171875 -0.359375 -0.234375 -0.828125zm-0.09375 -2.5625q-0.625 0.265625 -1.859375 0.4375q-0.703125 0.109375 -1.0 0.234375q-0.296875 0.125 -0.453125 0.375q-0.15625 0.234375 -0.15625 0.53125q0 0.453125 0.34375 0.765625q0.34375 0.296875 1.015625 0.296875q0.65625 0 1.171875 -0.28125q0.515625 -0.296875 0.765625 -0.796875q0.171875 -0.375 0.171875 -1.140625l0 -0.421875zm5.6156006 2.375l0.15625 1.0q-0.484375 0.109375 -0.859375 0.109375q-0.625 0 -0.96875 -0.203125q-0.34375 -0.203125 -0.484375 -0.515625q-0.140625 -0.328125 -0.140625 -1.34375l0 -3.890625l-0.828125 0l0 -0.875l0.828125 0l0 -1.671875l1.140625 -0.6875l0 2.359375l1.15625 0l0 0.875l-1.15625 0l0 3.953125q0 0.484375 0.0625 0.625q0.0625 0.140625 0.1875 0.21875q0.140625 0.078125 0.390625 0.078125q0.203125 0 0.515625 -0.03125zm5.8123627 -1.15625l1.1875 0.140625q-0.28125 1.046875 -1.046875 1.625q-0.75 0.5625 -1.921875 0.5625q-1.484375 0 -2.359375 -0.90625q-0.859375 -0.921875 -0.859375 -2.5625q0 -1.703125 0.875 -2.640625q0.890625 -0.9375 2.28125 -0.9375q1.359375 0 2.203125 0.921875q0.859375 0.921875 0.859375 2.578125q0 0.109375 0 0.3125l-5.03125 0q0.0625 1.109375 0.625 1.703125q0.5625 0.59375 1.40625 0.59375q0.640625 0 1.078125 -0.328125q0.453125 -0.34375 0.703125 -1.0625zm-3.75 -1.84375l3.765625 0q-0.078125 -0.859375 -0.4375 -1.28125q-0.546875 -0.65625 -1.40625 -0.65625q-0.796875 0 -1.328125 0.53125q-0.53125 0.515625 -0.59375 1.40625zm14.646713 3.1875q-0.625 0.53125 -1.21875 0.765625q-0.578125 0.21875 -1.25 0.21875q-1.125 0 -1.71875 -0.546875q-0.59375 -0.546875 -0.59375 -1.390625q0 -0.484375 0.21875 -0.890625q0.234375 -0.421875 0.59375 -0.671875q0.375 -0.25 0.828125 -0.375q0.328125 -0.078125 1.015625 -0.171875q1.375 -0.15625 2.03125 -0.390625q0.015625 -0.234375 0.015625 -0.296875q0 -0.703125 -0.328125 -0.984375q-0.4375 -0.390625 -1.296875 -0.390625q-0.8125 0 -1.203125 0.28125q-0.375 0.28125 -0.5625 1.0l-1.109375 -0.140625q0.140625 -0.71875 0.484375 -1.15625q0.359375 -0.453125 1.015625 -0.6875q0.671875 -0.234375 1.53125 -0.234375q0.875 0 1.40625 0.203125q0.546875 0.203125 0.796875 0.515625q0.25 0.296875 0.359375 0.765625q0.046875 0.296875 0.046875 1.0625l0 1.515625q0 1.59375 0.078125 2.015625q0.078125 0.421875 0.28125 0.8125l-1.1875 0q-0.171875 -0.359375 -0.234375 -0.828125zm-0.09375 -2.5625q-0.625 0.265625 -1.859375 0.4375q-0.703125 0.109375 -1.0 0.234375q-0.296875 0.125 -0.453125 0.375q-0.15625 0.234375 -0.15625 0.53125q0 0.453125 0.34375 0.765625q0.34375 0.296875 1.015625 0.296875q0.65625 0 1.171875 -0.28125q0.515625 -0.296875 0.765625 -0.796875q0.171875 -0.375 0.171875 -1.140625l0 -0.421875zm6.8185883 3.390625l0 -6.734375l1.015625 0l0 0.9375q0.328125 -0.5 0.84375 -0.796875q0.53125 -0.296875 1.203125 -0.296875q0.75 0 1.21875 0.3125q0.484375 0.3125 0.6875 0.859375q0.796875 -1.171875 2.078125 -1.171875q1.0 0 1.53125 0.5625q0.546875 0.546875 0.546875 1.703125l0 4.625l-1.125 0l0 -4.25q0 -0.6875 -0.109375 -0.984375q-0.109375 -0.296875 -0.40625 -0.484375q-0.296875 -0.1875 -0.6875 -0.1875q-0.71875 0 -1.1875 0.484375q-0.46875 0.46875 -0.46875 1.5l0 3.921875l-1.140625 0l0 -4.375q0 -0.765625 -0.28125 -1.140625q-0.28125 -0.390625 -0.90625 -0.390625q-0.484375 0 -0.890625 0.265625q-0.40625 0.25 -0.59375 0.734375q-0.1875 0.484375 -0.1875 1.40625l0 3.5l-1.140625 0zm15.493057 -0.828125q-0.625 0.53125 -1.21875 0.765625q-0.578125 0.21875 -1.25 0.21875q-1.125 0 -1.71875 -0.546875q-0.59375 -0.546875 -0.59375 -1.390625q0 -0.484375 0.21875 -0.890625q0.234375 -0.421875 0.59375 -0.671875q0.375 -0.25 0.828125 -0.375q0.328125 -0.078125 1.015625 -0.171875q1.375 -0.15625 2.03125 -0.390625q0.015625 -0.234375 0.015625 -0.296875q0 -0.703125 -0.328125 -0.984375q-0.4375 -0.390625 -1.296875 -0.390625q-0.8125 0 -1.203125 0.28125q-0.375 0.28125 -0.5625 1.0l-1.109375 -0.140625q0.140625 -0.71875 0.484375 -1.15625q0.359375 -0.453125 1.015625 -0.6875q0.671875 -0.234375 1.53125 -0.234375q0.875 0 1.40625 0.203125q0.546875 0.203125 0.796875 0.515625q0.25 0.296875 0.359375 0.765625q0.046875 0.296875 0.046875 1.0625l0 1.515625q0 1.59375 0.078125 2.015625q0.078125 0.421875 0.28125 0.8125l-1.1875 0q-0.171875 -0.359375 -0.234375 -0.828125zm-0.09375 -2.5625q-0.625 0.265625 -1.859375 0.4375q-0.703125 0.109375 -1.0 0.234375q-0.296875 0.125 -0.453125 0.375q-0.15625 0.234375 -0.15625 0.53125q0 0.453125 0.34375 0.765625q0.34375 0.296875 1.015625 0.296875q0.65625 0 1.171875 -0.28125q0.515625 -0.296875 0.765625 -0.796875q0.171875 -0.375 0.171875 -1.140625l0 -0.421875zm5.6156006 2.375l0.15625 1.0q-0.484375 0.109375 -0.859375 0.109375q-0.625 0 -0.96875 -0.203125q-0.34375 -0.203125 -0.484375 -0.515625q-0.140625 -0.328125 -0.140625 -1.34375l0 -3.890625l-0.828125 0l0 -0.875l0.828125 0l0 -1.671875l1.140625 -0.6875l0 2.359375l1.15625 0l0 0.875l-1.15625 0l0 3.953125q0 0.484375 0.0625 0.625q0.0625 0.140625 0.1875 0.21875q0.140625 0.078125 0.390625 0.078125q0.203125 0 0.515625 -0.03125zm5.5936127 -1.453125l1.125 0.140625q-0.171875 1.171875 -0.9375 1.828125q-0.765625 0.65625 -1.859375 0.65625q-1.390625 0 -2.234375 -0.90625q-0.828125 -0.90625 -0.828125 -2.59375q0 -1.09375 0.359375 -1.90625q0.359375 -0.828125 1.09375 -1.234375q0.734375 -0.40625 1.609375 -0.40625q1.09375 0 1.796875 0.5625q0.703125 0.546875 0.890625 1.5625l-1.109375 0.171875q-0.15625 -0.671875 -0.5625 -1.015625q-0.390625 -0.34375 -0.96875 -0.34375q-0.859375 0 -1.40625 0.625q-0.53125 0.609375 -0.53125 1.953125q0 1.359375 0.515625 1.984375q0.515625 0.609375 1.359375 0.609375q0.671875 0 1.125 -0.40625q0.453125 -0.421875 0.5625 -1.28125zm2.2734375 2.46875l0 -9.3125l1.140625 0l0 3.34375q0.796875 -0.921875 2.015625 -0.921875q0.75 0 1.296875 0.296875q0.5625 0.296875 0.796875 0.8125q0.234375 0.515625 0.234375 1.515625l0 4.265625l-1.140625 0l0 -4.265625q0 -0.859375 -0.375 -1.25q-0.359375 -0.390625 -1.046875 -0.390625q-0.5 0 -0.953125 0.265625q-0.453125 0.25 -0.640625 0.703125q-0.1875 0.453125 -0.1875 1.25l0 3.6875l-1.140625 0zm7.3343506 -8.078125l0 -1.328125l1.234375 0l0 1.046875q0 0.859375 -0.203125 1.234375q-0.265625 0.515625 -0.84375 0.765625l-0.28125 -0.453125q0.34375 -0.125 0.5 -0.421875q0.171875 -0.3125 0.203125 -0.84375l-0.609375 0zm2.58609 6.0625l1.125 -0.171875q0.09375 0.671875 0.53125 1.046875q0.4375 0.359375 1.21875 0.359375q0.78125 0 1.15625 -0.3125q0.390625 -0.328125 0.390625 -0.765625q0 -0.390625 -0.34375 -0.609375q-0.234375 -0.15625 -1.171875 -0.390625q-1.25 -0.3125 -1.734375 -0.546875q-0.484375 -0.234375 -0.734375 -0.640625q-0.25 -0.40625 -0.25 -0.90625q0 -0.453125 0.203125 -0.828125q0.203125 -0.390625 0.5625 -0.640625q0.265625 -0.203125 0.71875 -0.328125q0.46875 -0.140625 1.0 -0.140625q0.78125 0 1.375 0.234375q0.609375 0.21875 0.890625 0.609375q0.296875 0.390625 0.40625 1.046875l-1.125 0.15625q-0.078125 -0.53125 -0.4375 -0.8125q-0.359375 -0.296875 -1.03125 -0.296875q-0.78125 0 -1.125 0.265625q-0.34375 0.25 -0.34375 0.609375q0 0.21875 0.140625 0.390625q0.140625 0.1875 0.4375 0.3125q0.171875 0.0625 1.015625 0.28125q1.21875 0.328125 1.6875 0.53125q0.484375 0.203125 0.75 0.609375q0.28125 0.390625 0.28125 0.96875q0 0.578125 -0.34375 1.078125q-0.328125 0.5 -0.953125 0.78125q-0.625 0.28125 -1.421875 0.28125q-1.3125 0 -2.0 -0.546875q-0.6875 -0.546875 -0.875 -1.625zm12.05455 2.015625l-2.0625 -6.734375l1.1875 0l1.078125 3.890625l0.390625 1.4375q0.03125 -0.109375 0.359375 -1.390625l1.0625 -3.9375l1.171875 0l1.015625 3.90625l0.34375 1.28125l0.375 -1.296875l1.15625 -3.890625l1.109375 0l-2.109375 6.734375l-1.171875 0l-1.078125 -4.03125l-0.265625 -1.15625l-1.359375 5.1875l-1.203125 0zm7.9689026 -3.375q0 -1.875 1.03125 -2.765625q0.875 -0.75 2.125 -0.75q1.390625 0 2.265625 0.90625q0.890625 0.90625 0.890625 2.515625q0 1.296875 -0.390625 2.046875q-0.390625 0.75 -1.140625 1.171875q-0.75 0.40625 -1.625 0.40625q-1.421875 0 -2.296875 -0.90625q-0.859375 -0.90625 -0.859375 -2.625zm1.171875 0q0 1.296875 0.5625 1.953125q0.5625 0.640625 1.421875 0.640625q0.84375 0 1.40625 -0.640625q0.578125 -0.65625 0.578125 -1.984375q0 -1.25 -0.578125 -1.890625q-0.5625 -0.65625 -1.40625 -0.65625q-0.859375 0 -1.421875 0.640625q-0.5625 0.640625 -0.5625 1.9375zm6.6468506 3.375l0 -6.734375l1.03125 0l0 1.015625q0.390625 -0.71875 0.71875 -0.9375q0.34375 -0.234375 0.734375 -0.234375q0.578125 0 1.171875 0.359375l-0.390625 1.0625q-0.421875 -0.25 -0.828125 -0.25q-0.375 0 -0.6875 0.234375q-0.296875 0.21875 -0.421875 0.625q-0.1875 0.609375 -0.1875 1.328125l0 3.53125l-1.140625 0zm6.9539795 -1.015625l0.15625 1.0q-0.484375 0.109375 -0.859375 0.109375q-0.625 0 -0.96875 -0.203125q-0.34375 -0.203125 -0.484375 -0.515625q-0.140625 -0.328125 -0.140625 -1.34375l0 -3.890625l-0.828125 0l0 -0.875l0.828125 0l0 -1.671875l1.140625 -0.6875l0 2.359375l1.15625 0l0 0.875l-1.15625 0l0 3.953125q0 0.484375 0.0625 0.625q0.0625 0.140625 0.1875 0.21875q0.140625 0.078125 0.390625 0.078125q0.203125 0 0.515625 -0.03125zm1.2030029 1.015625l0 -9.3125l1.140625 0l0 3.34375q0.796875 -0.921875 2.015625 -0.921875q0.75 0 1.296875 0.296875q0.5625 0.296875 0.796875 0.8125q0.234375 0.515625 0.234375 1.515625l0 4.265625l-1.140625 0l0 -4.265625q0 -0.859375 -0.375 -1.25q-0.359375 -0.390625 -1.046875 -0.390625q-0.5 0 -0.953125 0.265625q-0.453125 0.25 -0.640625 0.703125q-0.1875 0.453125 -0.1875 1.25l0 3.6875l-1.140625 0zm10.693573 -3.375q0 -1.875 1.03125 -2.765625q0.875 -0.75 2.125 -0.75q1.390625 0 2.265625 0.90625q0.890625 0.90625 0.890625 2.515625q0 1.296875 -0.390625 2.046875q-0.390625 0.75 -1.140625 1.171875q-0.75 0.40625 -1.625 0.40625q-1.421875 0 -2.296875 -0.90625q-0.859375 -0.90625 -0.859375 -2.625zm1.171875 0q0 1.296875 0.5625 1.953125q0.5625 0.640625 1.421875 0.640625q0.84375 0 1.40625 -0.640625q0.578125 -0.65625 0.578125 -1.984375q0 -1.25 -0.578125 -1.890625q-0.5625 -0.65625 -1.40625 -0.65625q-0.859375 0 -1.421875 0.640625q-0.5625 0.640625 -0.5625 1.9375zm6.9281006 3.375l0 -5.859375l-1.0 0l0 -0.875l1.0 0l0 -0.71875q0 -0.6875 0.125 -1.015625q0.171875 -0.4375 0.578125 -0.71875q0.421875 -0.28125 1.171875 -0.28125q0.484375 0 1.0625 0.125l-0.171875 0.984375q-0.359375 -0.0625 -0.671875 -0.0625q-0.515625 0 -0.734375 0.234375q-0.21875 0.21875 -0.21875 0.828125l0 0.625l1.3125 0l0 0.875l-1.3125 0l0 5.859375l-1.140625 0zm6.6872253 -2.015625l1.125 -0.171875q0.09375 0.671875 0.53125 1.046875q0.4375 0.359375 1.21875 0.359375q0.78125 0 1.15625 -0.3125q0.390625 -0.328125 0.390625 -0.765625q0 -0.390625 -0.34375 -0.609375q-0.234375 -0.15625 -1.171875 -0.390625q-1.25 -0.3125 -1.734375 -0.546875q-0.484375 -0.234375 -0.734375 -0.640625q-0.25 -0.40625 -0.25 -0.90625q0 -0.453125 0.203125 -0.828125q0.203125 -0.390625 0.5625 -0.640625q0.265625 -0.203125 0.71875 -0.328125q0.46875 -0.140625 1.0 -0.140625q0.78125 0 1.375 0.234375q0.609375 0.21875 0.890625 0.609375q0.296875 0.390625 0.40625 1.046875l-1.125 0.15625q-0.078125 -0.53125 -0.4375 -0.8125q-0.359375 -0.296875 -1.03125 -0.296875q-0.78125 0 -1.125 0.265625q-0.34375 0.25 -0.34375 0.609375q0 0.21875 0.140625 0.390625q0.140625 0.1875 0.4375 0.3125q0.171875 0.0625 1.015625 0.28125q1.21875 0.328125 1.6875 0.53125q0.484375 0.203125 0.75 0.609375q0.28125 0.390625 0.28125 0.96875q0 0.578125 -0.34375 1.078125q-0.328125 0.5 -0.953125 0.78125q-0.625 0.28125 -1.421875 0.28125q-1.3125 0 -2.0 -0.546875q-0.6875 -0.546875 -0.875 -1.625zm11.5390625 2.015625l0 -0.984375q-0.796875 1.140625 -2.140625 1.140625q-0.59375 0 -1.125 -0.234375q-0.515625 -0.234375 -0.765625 -0.578125q-0.25 -0.34375 -0.34375 -0.84375q-0.078125 -0.328125 -0.078125 -1.0625l0 -4.171875l1.140625 0l0 3.734375q0 0.890625 0.078125 1.203125q0.109375 0.453125 0.453125 0.71875q0.34375 0.25 0.859375 0.25q0.515625 0 0.96875 -0.265625q0.453125 -0.265625 0.640625 -0.71875q0.1875 -0.453125 0.1875 -1.3125l0 -3.609375l1.140625 0l0 6.734375l-1.015625 0zm2.5374756 -2.015625l1.125 -0.171875q0.09375 0.671875 0.53125 1.046875q0.4375 0.359375 1.21875 0.359375q0.78125 0 1.15625 -0.3125q0.390625 -0.328125 0.390625 -0.765625q0 -0.390625 -0.34375 -0.609375q-0.234375 -0.15625 -1.171875 -0.390625q-1.25 -0.3125 -1.734375 -0.546875q-0.484375 -0.234375 -0.734375 -0.640625q-0.25 -0.40625 -0.25 -0.90625q0 -0.453125 0.203125 -0.828125q0.203125 -0.390625 0.5625 -0.640625q0.265625 -0.203125 0.71875 -0.328125q0.46875 -0.140625 1.0 -0.140625q0.78125 0 1.375 0.234375q0.609375 0.21875 0.890625 0.609375q0.296875 0.390625 0.40625 1.046875l-1.125 0.15625q-0.078125 -0.53125 -0.4375 -0.8125q-0.359375 -0.296875 -1.03125 -0.296875q-0.78125 0 -1.125 0.265625q-0.34375 0.25 -0.34375 0.609375q0 0.21875 0.140625 0.390625q0.140625 0.1875 0.4375 0.3125q0.171875 0.0625 1.015625 0.28125q1.21875 0.328125 1.6875 0.53125q0.484375 0.203125 0.75 0.609375q0.28125 0.390625 0.28125 0.96875q0 0.578125 -0.34375 1.078125q-0.328125 0.5 -0.953125 0.78125q-0.625 0.28125 -1.421875 0.28125q-1.3125 0 -2.0 -0.546875q-0.6875 -0.546875 -0.875 -1.625zm9.6171875 1.0l0.15625 1.0q-0.484375 0.109375 -0.859375 0.109375q-0.625 0 -0.96875 -0.203125q-0.34375 -0.203125 -0.484375 -0.515625q-0.140625 -0.328125 -0.140625 -1.34375l0 -3.890625l-0.828125 0l0 -0.875l0.828125 0l0 -1.671875l1.140625 -0.6875l0 2.359375l1.15625 0l0 0.875l-1.15625 0l0 3.953125q0 0.484375 0.0625 0.625q0.0625 0.140625 0.1875 0.21875q0.140625 0.078125 0.390625 0.078125q0.203125 0 0.515625 -0.03125zm5.5935974 0.1875q-0.625 0.53125 -1.21875 0.765625q-0.578125 0.21875 -1.25 0.21875q-1.125 0 -1.71875 -0.546875q-0.59375 -0.546875 -0.59375 -1.390625q0 -0.484375 0.21875 -0.890625q0.234375 -0.421875 0.59375 -0.671875q0.375 -0.25 0.828125 -0.375q0.328125 -0.078125 1.015625 -0.171875q1.375 -0.15625 2.03125 -0.390625q0.015625 -0.234375 0.015625 -0.296875q0 -0.703125 -0.328125 -0.984375q-0.4375 -0.390625 -1.296875 -0.390625q-0.8125 0 -1.203125 0.28125q-0.375 0.28125 -0.5625 1.0l-1.109375 -0.140625q0.140625 -0.71875 0.484375 -1.15625q0.359375 -0.453125 1.015625 -0.6875q0.671875 -0.234375 1.53125 -0.234375q0.875 0 1.40625 0.203125q0.546875 0.203125 0.796875 0.515625q0.25 0.296875 0.359375 0.765625q0.046875 0.296875 0.046875 1.0625l0 1.515625q0 1.59375 0.078125 2.015625q0.078125 0.421875 0.28125 0.8125l-1.1875 0q-0.171875 -0.359375 -0.234375 -0.828125zm-0.09375 -2.5625q-0.625 0.265625 -1.859375 0.4375q-0.703125 0.109375 -1.0 0.234375q-0.296875 0.125 -0.453125 0.375q-0.15625 0.234375 -0.15625 0.53125q0 0.453125 0.34375 0.765625q0.34375 0.296875 1.015625 0.296875q0.65625 0 1.171875 -0.28125q0.515625 -0.296875 0.765625 -0.796875q0.171875 -0.375 0.171875 -1.140625l0 -0.421875zm3.1156006 -4.59375l0 -1.328125l1.140625 0l0 1.328125l-1.140625 0zm0 7.984375l0 -6.734375l1.140625 0l0 6.734375l-1.140625 0zm2.96109 0l0 -6.734375l1.03125 0l0 0.953125q0.734375 -1.109375 2.140625 -1.109375q0.609375 0 1.109375 0.21875q0.515625 0.21875 0.765625 0.578125q0.265625 0.34375 0.359375 0.84375q0.0625 0.3125 0.0625 1.109375l0 4.140625l-1.140625 0l0 -4.09375q0 -0.703125 -0.140625 -1.046875q-0.125 -0.34375 -0.46875 -0.546875q-0.328125 -0.21875 -0.78125 -0.21875q-0.734375 0 -1.265625 0.46875q-0.53125 0.453125 -0.53125 1.75l0 3.6875l-1.140625 0zm12.021851 -2.171875l1.1875 0.140625q-0.28125 1.046875 -1.046875 1.625q-0.75 0.5625 -1.921875 0.5625q-1.484375 0 -2.359375 -0.90625q-0.859375 -0.921875 -0.859375 -2.5625q0 -1.703125 0.875 -2.640625q0.890625 -0.9375 2.28125 -0.9375q1.359375 0 2.203125 0.921875q0.859375 0.921875 0.859375 2.578125q0 0.109375 0 0.3125l-5.03125 0q0.0625 1.109375 0.625 1.703125q0.5625 0.59375 1.40625 0.59375q0.640625 0 1.078125 -0.328125q0.453125 -0.34375 0.703125 -1.0625zm-3.75 -1.84375l3.765625 0q-0.078125 -0.859375 -0.4375 -1.28125q-0.546875 -0.65625 -1.40625 -0.65625q-0.796875 0 -1.328125 0.53125q-0.53125 0.515625 -0.59375 1.40625zm10.928101 4.015625l0 -0.84375q-0.640625 1.0 -1.890625 1.0q-0.796875 0 -1.484375 -0.4375q-0.671875 -0.453125 -1.046875 -1.25q-0.375 -0.796875 -0.375 -1.828125q0 -1.015625 0.34375 -1.828125q0.34375 -0.828125 1.015625 -1.265625q0.671875 -0.4375 1.5 -0.4375q0.609375 0 1.078125 0.265625q0.484375 0.25 0.78125 0.65625l0 -3.34375l1.140625 0l0 9.3125l-1.0625 0zm-3.609375 -3.359375q0 1.296875 0.53125 1.9375q0.546875 0.640625 1.296875 0.640625q0.75 0 1.265625 -0.609375q0.53125 -0.625 0.53125 -1.875q0 -1.390625 -0.53125 -2.03125q-0.53125 -0.65625 -1.3125 -0.65625q-0.765625 0 -1.28125 0.625q-0.5 0.625 -0.5 1.96875zm10.615448 3.359375l0 -5.859375l-1.0 0l0 -0.875l1.0 0l0 -0.71875q0 -0.6875 0.125 -1.015625q0.171875 -0.4375 0.578125 -0.71875q0.421875 -0.28125 1.171875 -0.28125q0.484375 0 1.0625 0.125l-0.171875 0.984375q-0.359375 -0.0625 -0.671875 -0.0625q-0.515625 0 -0.734375 0.234375q-0.21875 0.21875 -0.21875 0.828125l0 0.625l1.3125 0l0 0.875l-1.3125 0l0 5.859375l-1.140625 0zm3.437378 -7.984375l0 -1.328125l1.140625 0l0 1.328125l-1.140625 0zm0 7.984375l0 -6.734375l1.140625 0l0 6.734375l-1.140625 0zm2.945465 0l0 -6.734375l1.03125 0l0 1.015625q0.390625 -0.71875 0.71875 -0.9375q0.34375 -0.234375 0.734375 -0.234375q0.578125 0 1.171875 0.359375l-0.390625 1.0625q-0.421875 -0.25 -0.828125 -0.25q-0.375 0 -0.6875 0.234375q-0.296875 0.21875 -0.421875 0.625q-0.1875 0.609375 -0.1875 1.328125l0 3.53125l-1.140625 0zm9.063385 -2.171875l1.1875 0.140625q-0.28125 1.046875 -1.046875 1.625q-0.75 0.5625 -1.921875 0.5625q-1.484375 0 -2.359375 -0.90625q-0.859375 -0.921875 -0.859375 -2.5625q0 -1.703125 0.875 -2.640625q0.890625 -0.9375 2.28125 -0.9375q1.359375 0 2.203125 0.921875q0.859375 0.921875 0.859375 2.578125q0 0.109375 0 0.3125l-5.03125 0q0.0625 1.109375 0.625 1.703125q0.5625 0.59375 1.40625 0.59375q0.640625 0 1.078125 -0.328125q0.453125 -0.34375 0.703125 -1.0625zm-3.75 -1.84375l3.765625 0q-0.078125 -0.859375 -0.4375 -1.28125q-0.546875 -0.65625 -1.40625 -0.65625q-0.796875 0 -1.328125 0.53125q-0.53125 0.515625 -0.59375 1.40625zm6.8499756 4.015625l0 -1.296875l1.296875 0l0 1.296875q0 0.71875 -0.25 1.15625q-0.25 0.4375 -0.8125 0.6875l-0.3125 -0.484375q0.359375 -0.171875 0.53125 -0.484375q0.171875 -0.296875 0.1875 -0.875l-0.640625 0zm6.687256 -3.375q0 -1.875 1.03125 -2.765625q0.875 -0.75 2.125 -0.75q1.390625 0 2.265625 0.90625q0.890625 0.90625 0.890625 2.515625q0 1.296875 -0.390625 2.046875q-0.390625 0.75 -1.140625 1.171875q-0.75 0.40625 -1.625 0.40625q-1.421875 0 -2.296875 -0.90625q-0.859375 -0.90625 -0.859375 -2.625zm1.171875 0q0 1.296875 0.5625 1.953125q0.5625 0.640625 1.421875 0.640625q0.84375 0 1.40625 -0.640625q0.578125 -0.65625 0.578125 -1.984375q0 -1.25 -0.578125 -1.890625q-0.5625 -0.65625 -1.40625 -0.65625q-0.859375 0 -1.421875 0.640625q-0.5625 0.640625 -0.5625 1.9375zm6.6468506 3.375l0 -6.734375l1.03125 0l0 1.015625q0.390625 -0.71875 0.71875 -0.9375q0.34375 -0.234375 0.734375 -0.234375q0.578125 0 1.171875 0.359375l-0.390625 1.0625q-0.421875 -0.25 -0.828125 -0.25q-0.375 0 -0.6875 0.234375q-0.296875 0.21875 -0.421875 0.625q-0.1875 0.609375 -0.1875 1.328125l0 3.53125l-1.140625 0zm12.547607 -0.828125q-0.625 0.53125 -1.21875 0.765625q-0.578125 0.21875 -1.25 0.21875q-1.125 0 -1.71875 -0.546875q-0.59375 -0.546875 -0.59375 -1.390625q0 -0.484375 0.21875 -0.890625q0.234375 -0.421875 0.59375 -0.671875q0.375 -0.25 0.828125 -0.375q0.328125 -0.078125 1.015625 -0.171875q1.375 -0.15625 2.03125 -0.390625q0.015625 -0.234375 0.015625 -0.296875q0 -0.703125 -0.328125 -0.984375q-0.4375 -0.390625 -1.296875 -0.390625q-0.8125 0 -1.203125 0.28125q-0.375 0.28125 -0.5625 1.0l-1.109375 -0.140625q0.140625 -0.71875 0.484375 -1.15625q0.359375 -0.453125 1.015625 -0.6875q0.671875 -0.234375 1.53125 -0.234375q0.875 0 1.40625 0.203125q0.546875 0.203125 0.796875 0.515625q0.25 0.296875 0.359375 0.765625q0.046875 0.296875 0.046875 1.0625l0 1.515625q0 1.59375 0.078125 2.015625q0.078125 0.421875 0.28125 0.8125l-1.1875 0q-0.171875 -0.359375 -0.234375 -0.828125zm-0.09375 -2.5625q-0.625 0.265625 -1.859375 0.4375q-0.703125 0.109375 -1.0 0.234375q-0.296875 0.125 -0.453125 0.375q-0.15625 0.234375 -0.15625 0.53125q0 0.453125 0.34375 0.765625q0.34375 0.296875 1.015625 0.296875q0.65625 0 1.171875 -0.28125q0.515625 -0.296875 0.765625 -0.796875q0.171875 -0.375 0.171875 -1.140625l0 -0.421875zm6.8186035 3.390625l0 -6.734375l1.015625 0l0 0.9375q0.328125 -0.5 0.84375 -0.796875q0.53125 -0.296875 1.203125 -0.296875q0.75 0 1.21875 0.3125q0.484375 0.3125 0.6875 0.859375q0.796875 -1.171875 2.078125 -1.171875q1.0 0 1.53125 0.5625q0.546875 0.546875 0.546875 1.703125l0 4.625l-1.125 0l0 -4.25q0 -0.6875 -0.109375 -0.984375q-0.109375 -0.296875 -0.40625 -0.484375q-0.296875 -0.1875 -0.6875 -0.1875q-0.71875 0 -1.1875 0.484375q-0.46875 0.46875 -0.46875 1.5l0 3.921875l-1.140625 0l0 -4.375q0 -0.765625 -0.28125 -1.140625q-0.28125 -0.390625 -0.90625 -0.390625q-0.484375 0 -0.890625 0.265625q-0.40625 0.25 -0.59375 0.734375q-0.1875 0.484375 -0.1875 1.40625l0 3.5l-1.140625 0zm10.680542 -3.375q0 -1.875 1.03125 -2.765625q0.875 -0.75 2.125 -0.75q1.390625 0 2.265625 0.90625q0.890625 0.90625 0.890625 2.515625q0 1.296875 -0.390625 2.046875q-0.390625 0.75 -1.140625 1.171875q-0.75 0.40625 -1.625 0.40625q-1.421875 0 -2.296875 -0.90625q-0.859375 -0.90625 -0.859375 -2.625zm1.171875 0q0 1.296875 0.5625 1.953125q0.5625 0.640625 1.421875 0.640625q0.84375 0 1.40625 -0.640625q0.578125 -0.65625 0.578125 -1.984375q0 -1.25 -0.578125 -1.890625q-0.5625 -0.65625 -1.40625 -0.65625q-0.859375 0 -1.421875 0.640625q-0.5625 0.640625 -0.5625 1.9375zm6.6624756 3.375l0 -6.734375l1.015625 0l0 0.9375q0.328125 -0.5 0.84375 -0.796875q0.53125 -0.296875 1.203125 -0.296875q0.75 0 1.21875 0.3125q0.484375 0.3125 0.6875 0.859375q0.796875 -1.171875 2.078125 -1.171875q1.0 0 1.53125 0.5625q0.546875 0.546875 0.546875 1.703125l0 4.625l-1.125 0l0 -4.25q0 -0.6875 -0.109375 -0.984375q-0.109375 -0.296875 -0.40625 -0.484375q-0.296875 -0.1875 -0.6875 -0.1875q-0.71875 0 -1.1875 0.484375q-0.46875 0.46875 -0.46875 1.5l0 3.921875l-1.140625 0l0 -4.375q0 -0.765625 -0.28125 -1.140625q-0.28125 -0.390625 -0.90625 -0.390625q-0.484375 0 -0.890625 0.265625q-0.40625 0.25 -0.59375 0.734375q-0.1875 0.484375 -0.1875 1.40625l0 3.5l-1.140625 0zm15.711792 -2.171875l1.1875 0.140625q-0.28125 1.046875 -1.046875 1.625q-0.75 0.5625 -1.921875 0.5625q-1.484375 0 -2.359375 -0.90625q-0.859375 -0.921875 -0.859375 -2.5625q0 -1.703125 0.875 -2.640625q0.890625 -0.9375 2.28125 -0.9375q1.359375 0 2.203125 0.921875q0.859375 0.921875 0.859375 2.578125q0 0.109375 0 0.3125l-5.03125 0q0.0625 1.109375 0.625 1.703125q0.5625 0.59375 1.40625 0.59375q0.640625 0 1.078125 -0.328125q0.453125 -0.34375 0.703125 -1.0625zm-3.75 -1.84375l3.765625 0q-0.078125 -0.859375 -0.4375 -1.28125q-0.546875 -0.65625 -1.40625 -0.65625q-0.796875 0 -1.328125 0.53125q-0.53125 0.515625 -0.59375 1.40625zm6.5531006 4.015625l0 -6.734375l1.03125 0l0 0.953125q0.734375 -1.109375 2.140625 -1.109375q0.609375 0 1.109375 0.21875q0.515625 0.21875 0.765625 0.578125q0.265625 0.34375 0.359375 0.84375q0.0625 0.3125 0.0625 1.109375l0 4.140625l-1.140625 0l0 -4.09375q0 -0.703125 -0.140625 -1.046875q-0.125 -0.34375 -0.46875 -0.546875q-0.328125 -0.21875 -0.78125 -0.21875q-0.734375 0 -1.265625 0.46875q-0.53125 0.453125 -0.53125 1.75l0 3.6875l-1.140625 0zm9.912476 -1.015625l0.15625 1.0q-0.484375 0.109375 -0.859375 0.109375q-0.625 0 -0.96875 -0.203125q-0.34375 -0.203125 -0.484375 -0.515625q-0.140625 -0.328125 -0.140625 -1.34375l0 -3.890625l-0.828125 0l0 -0.875l0.828125 0l0 -1.671875l1.140625 -0.6875l0 2.359375l1.15625 0l0 0.875l-1.15625 0l0 3.953125q0 0.484375 0.0625 0.625q0.0625 0.140625 0.1875 0.21875q0.140625 0.078125 0.390625 0.078125q0.203125 0 0.515625 -0.03125zm5.593628 0.1875q-0.625 0.53125 -1.21875 0.765625q-0.578125 0.21875 -1.25 0.21875q-1.125 0 -1.71875 -0.546875q-0.59375 -0.546875 -0.59375 -1.390625q0 -0.484375 0.21875 -0.890625q0.234375 -0.421875 0.59375 -0.671875q0.375 -0.25 0.828125 -0.375q0.328125 -0.078125 1.015625 -0.171875q1.375 -0.15625 2.03125 -0.390625q0.015625 -0.234375 0.015625 -0.296875q0 -0.703125 -0.328125 -0.984375q-0.4375 -0.390625 -1.296875 -0.390625q-0.8125 0 -1.203125 0.28125q-0.375 0.28125 -0.5625 1.0l-1.109375 -0.140625q0.140625 -0.71875 0.484375 -1.15625q0.359375 -0.453125 1.015625 -0.6875q0.671875 -0.234375 1.53125 -0.234375q0.875 0 1.40625 0.203125q0.546875 0.203125 0.796875 0.515625q0.25 0.296875 0.359375 0.765625q0.046875 0.296875 0.046875 1.0625l0 1.515625q0 1.59375 0.078125 2.015625q0.078125 0.421875 0.28125 0.8125l-1.1875 0q-0.171875 -0.359375 -0.234375 -0.828125zm-0.09375 -2.5625q-0.625 0.265625 -1.859375 0.4375q-0.703125 0.109375 -1.0 0.234375q-0.296875 0.125 -0.453125 0.375q-0.15625 0.234375 -0.15625 0.53125q0 0.453125 0.34375 0.765625q0.34375 0.296875 1.015625 0.296875q0.65625 0 1.171875 -0.28125q0.515625 -0.296875 0.765625 -0.796875q0.171875 -0.375 0.171875 -1.140625l0 -0.421875zm3.0999756 3.390625l0 -6.734375l1.03125 0l0 1.015625q0.390625 -0.71875 0.71875 -0.9375q0.34375 -0.234375 0.734375 -0.234375q0.578125 0 1.171875 0.359375l-0.390625 1.0625q-0.421875 -0.25 -0.828125 -0.25q-0.375 0 -0.6875 0.234375q-0.296875 0.21875 -0.421875 0.625q-0.1875 0.609375 -0.1875 1.328125l0 3.53125l-1.140625 0zm4.4071045 2.59375l-0.140625 -1.0625q0.375 0.09375 0.65625 0.09375q0.390625 0 0.609375 -0.125q0.234375 -0.125 0.375 -0.359375q0.109375 -0.171875 0.359375 -0.84375q0.03125 -0.09375 0.09375 -0.28125l-2.5625 -6.75l1.234375 0l1.40625 3.890625q0.265625 0.75 0.484375 1.5625q0.203125 -0.78125 0.46875 -1.53125l1.453125 -3.921875l1.140625 0l-2.5625 6.84375q-0.421875 1.109375 -0.640625 1.53125q-0.3125 0.5625 -0.703125 0.828125q-0.390625 0.265625 -0.9375 0.265625q-0.328125 0 -0.734375 -0.140625zm10.38269 -2.59375l0 -9.3125l1.140625 0l0 9.3125l-1.140625 0zm7.382965 -0.828125q-0.625 0.53125 -1.21875 0.765625q-0.578125 0.21875 -1.25 0.21875q-1.125 0 -1.71875 -0.546875q-0.59375 -0.546875 -0.59375 -1.390625q0 -0.484375 0.21875 -0.890625q0.234375 -0.421875 0.59375 -0.671875q0.375 -0.25 0.828125 -0.375q0.328125 -0.078125 1.015625 -0.171875q1.375 -0.15625 2.03125 -0.390625q0.015625 -0.234375 0.015625 -0.296875q0 -0.703125 -0.328125 -0.984375q-0.4375 -0.390625 -1.296875 -0.390625q-0.8125 0 -1.203125 0.28125q-0.375 0.28125 -0.5625 1.0l-1.109375 -0.140625q0.140625 -0.71875 0.484375 -1.15625q0.359375 -0.453125 1.015625 -0.6875q0.671875 -0.234375 1.53125 -0.234375q0.875 0 1.40625 0.203125q0.546875 0.203125 0.796875 0.515625q0.25 0.296875 0.359375 0.765625q0.046875 0.296875 0.046875 1.0625l0 1.515625q0 1.59375 0.078125 2.015625q0.078125 0.421875 0.28125 0.8125l-1.1875 0q-0.171875 -0.359375 -0.234375 -0.828125zm-0.09375 -2.5625q-0.625 0.265625 -1.859375 0.4375q-0.703125 0.109375 -1.0 0.234375q-0.296875 0.125 -0.453125 0.375q-0.15625 0.234375 -0.15625 0.53125q0 0.453125 0.34375 0.765625q0.34375 0.296875 1.015625 0.296875q0.65625 0 1.171875 -0.28125q0.515625 -0.296875 0.765625 -0.796875q0.171875 -0.375 0.171875 -1.140625l0 -0.421875zm3.0999756 3.390625l0 -6.734375l1.03125 0l0 1.015625q0.390625 -0.71875 0.71875 -0.9375q0.34375 -0.234375 0.734375 -0.234375q0.578125 0 1.171875 0.359375l-0.390625 1.0625q-0.421875 -0.25 -0.828125 -0.25q-0.375 0 -0.6875 0.234375q-0.296875 0.21875 -0.421875 0.625q-0.1875 0.609375 -0.1875 1.328125l0 3.53125l-1.140625 0zm4.23526 0.5625l1.125 0.15625q0.0625 0.515625 0.375 0.75q0.4375 0.328125 1.171875 0.328125q0.78125 0 1.21875 -0.328125q0.4375 -0.3125 0.578125 -0.890625q0.09375 -0.34375 0.09375 -1.453125q-0.75 0.875 -1.875 0.875q-1.390625 0 -2.15625 -1.0q-0.75 -1.0 -0.75 -2.40625q0 -0.96875 0.34375 -1.78125q0.359375 -0.8125 1.015625 -1.25q0.65625 -0.453125 1.5625 -0.453125q1.1875 0 1.96875 0.96875l0 -0.8125l1.046875 0l0 5.8125q0 1.578125 -0.328125 2.234375q-0.3125 0.65625 -1.015625 1.03125q-0.6875 0.390625 -1.703125 0.390625q-1.203125 0 -1.953125 -0.546875q-0.734375 -0.53125 -0.71875 -1.625zm0.953125 -4.046875q0 1.3125 0.515625 1.921875q0.53125 0.609375 1.328125 0.609375q0.796875 0 1.328125 -0.59375q0.53125 -0.609375 0.53125 -1.90625q0 -1.234375 -0.546875 -1.859375q-0.546875 -0.640625 -1.328125 -0.640625q-0.765625 0 -1.296875 0.625q-0.53125 0.625 -0.53125 1.84375zm11.287476 1.3125l1.1875 0.140625q-0.28125 1.046875 -1.046875 1.625q-0.75 0.5625 -1.921875 0.5625q-1.484375 0 -2.359375 -0.90625q-0.859375 -0.921875 -0.859375 -2.5625q0 -1.703125 0.875 -2.640625q0.890625 -0.9375 2.28125 -0.9375q1.359375 0 2.203125 0.921875q0.859375 0.921875 0.859375 2.578125q0 0.109375 0 0.3125l-5.03125 0q0.0625 1.109375 0.625 1.703125q0.5625 0.59375 1.40625 0.59375q0.640625 0 1.078125 -0.328125q0.453125 -0.34375 0.703125 -1.0625zm-3.75 -1.84375l3.765625 0q-0.078125 -0.859375 -0.4375 -1.28125q-0.546875 -0.65625 -1.40625 -0.65625q-0.796875 0 -1.328125 0.53125q-0.53125 0.515625 -0.59375 1.40625zm9.803009 2.0l1.125 -0.171875q0.09375 0.671875 0.53125 1.046875q0.4375 0.359375 1.21875 0.359375q0.78125 0 1.15625 -0.3125q0.390625 -0.328125 0.390625 -0.765625q0 -0.390625 -0.34375 -0.609375q-0.234375 -0.15625 -1.171875 -0.390625q-1.25 -0.3125 -1.734375 -0.546875q-0.484375 -0.234375 -0.734375 -0.640625q-0.25 -0.40625 -0.25 -0.90625q0 -0.453125 0.203125 -0.828125q0.203125 -0.390625 0.5625 -0.640625q0.265625 -0.203125 0.71875 -0.328125q0.46875 -0.140625 1.0 -0.140625q0.78125 0 1.375 0.234375q0.609375 0.21875 0.890625 0.609375q0.296875 0.390625 0.40625 1.046875l-1.125 0.15625q-0.078125 -0.53125 -0.4375 -0.8125q-0.359375 -0.296875 -1.03125 -0.296875q-0.78125 0 -1.125 0.265625q-0.34375 0.25 -0.34375 0.609375q0 0.21875 0.140625 0.390625q0.140625 0.1875 0.4375 0.3125q0.171875 0.0625 1.015625 0.28125q1.21875 0.328125 1.6875 0.53125q0.484375 0.203125 0.75 0.609375q0.28125 0.390625 0.28125 0.96875q0 0.578125 -0.34375 1.078125q-0.328125 0.5 -0.953125 0.78125q-0.625 0.28125 -1.421875 0.28125q-1.3125 0 -2.0 -0.546875q-0.6875 -0.546875 -0.875 -1.625zm7.1171875 4.59375l0 -9.3125l1.03125 0l0 0.875q0.375 -0.515625 0.828125 -0.765625q0.46875 -0.265625 1.140625 -0.265625q0.859375 0 1.515625 0.453125q0.65625 0.4375 0.984375 1.25q0.34375 0.796875 0.34375 1.765625q0 1.03125 -0.375 1.859375q-0.359375 0.828125 -1.078125 1.28125q-0.703125 0.4375 -1.484375 0.4375q-0.5625 0 -1.015625 -0.234375q-0.453125 -0.25 -0.75 -0.625l0 3.28125l-1.140625 0zm1.03125 -5.90625q0 1.296875 0.53125 1.921875q0.53125 0.625 1.265625 0.625q0.765625 0 1.3125 -0.640625q0.546875 -0.65625 0.546875 -2.0q0 -1.296875 -0.53125 -1.9375q-0.53125 -0.640625 -1.265625 -0.640625q-0.734375 0 -1.296875 0.6875q-0.5625 0.671875 -0.5625 1.984375zm10.771851 2.5q-0.625 0.53125 -1.21875 0.765625q-0.578125 0.21875 -1.25 0.21875q-1.125 0 -1.71875 -0.546875q-0.59375 -0.546875 -0.59375 -1.390625q0 -0.484375 0.21875 -0.890625q0.234375 -0.421875 0.59375 -0.671875q0.375 -0.25 0.828125 -0.375q0.328125 -0.078125 1.015625 -0.171875q1.375 -0.15625 2.03125 -0.390625q0.015625 -0.234375 0.015625 -0.296875q0 -0.703125 -0.328125 -0.984375q-0.4375 -0.390625 -1.296875 -0.390625q-0.8125 0 -1.203125 0.28125q-0.375 0.28125 -0.5625 1.0l-1.109375 -0.140625q0.140625 -0.71875 0.484375 -1.15625q0.359375 -0.453125 1.015625 -0.6875q0.671875 -0.234375 1.53125 -0.234375q0.875 0 1.40625 0.203125q0.546875 0.203125 0.796875 0.515625q0.25 0.296875 0.359375 0.765625q0.046875 0.296875 0.046875 1.0625l0 1.515625q0 1.59375 0.078125 2.015625q0.078125 0.421875 0.28125 0.8125l-1.1875 0q-0.171875 -0.359375 -0.234375 -0.828125zm-0.09375 -2.5625q-0.625 0.265625 -1.859375 0.4375q-0.703125 0.109375 -1.0 0.234375q-0.296875 0.125 -0.453125 0.375q-0.15625 0.234375 -0.15625 0.53125q0 0.453125 0.34375 0.765625q0.34375 0.296875 1.015625 0.296875q0.65625 0 1.171875 -0.28125q0.515625 -0.296875 0.765625 -0.796875q0.171875 -0.375 0.171875 -1.140625l0 -0.421875zm3.0999756 3.390625l0 -6.734375l1.03125 0l0 1.015625q0.390625 -0.71875 0.71875 -0.9375q0.34375 -0.234375 0.734375 -0.234375q0.578125 0 1.171875 0.359375l-0.390625 1.0625q-0.421875 -0.25 -0.828125 -0.25q-0.375 0 -0.6875 0.234375q-0.296875 0.21875 -0.421875 0.625q-0.1875 0.609375 -0.1875 1.328125l0 3.53125l-1.140625 0zm4.4539795 0l0 -9.3125l1.140625 0l0 5.3125l2.703125 -2.734375l1.484375 0l-2.578125 2.5l2.84375 4.234375l-1.40625 0l-2.234375 -3.453125l-0.8125 0.78125l0 2.671875l-1.140625 0z" fill-rule="nonzero"></path><path fill="#000000" fill-opacity="0.0" d="m51.692913 20.044619l876.66144 0l0 58.015755l-876.66144 0z" fill-rule="nonzero"></path><path fill="#000000" d="m62.161663 46.96462l0 -13.59375l5.125004 0q1.359375 0 2.078125 0.125q1.0 0.171875 1.671875 0.640625q0.671875 0.46875 1.078125 1.3125q0.421875 0.84375 0.421875 1.84375q0 1.734375 -1.109375 2.9375q-1.09375 1.203125 -3.984375 1.203125l-3.4843788 0l0 5.53125l-1.796875 0zm1.796875 -7.140625l3.5156288 0q1.75 0 2.46875 -0.640625q0.734375 -0.65625 0.734375 -1.828125q0 -0.859375 -0.4375 -1.46875q-0.421875 -0.609375 -1.125 -0.796875q-0.453125 -0.125 -1.671875 -0.125l-3.4843788 0l0 4.859375zm10.412327 7.140625l0 -9.859375l1.5 0l0 1.5q0.578125 -1.046875 1.0625 -1.375q0.484375 -0.34375 1.078125 -0.34375q0.84375 0 1.71875 0.546875l-0.578125 1.546875q-0.609375 -0.359375 -1.234375 -0.359375q-0.546875 0 -0.984375 0.328125q-0.421875 0.328125 -0.609375 0.90625q-0.28125 0.890625 -0.28125 1.953125l0 5.15625l-1.671875 0zm6.243927 -11.6875l0 -1.90625l1.671875 0l0 1.90625l-1.671875 0zm0 11.6875l0 -9.859375l1.671875 0l0 9.859375l-1.671875 0zm4.129196 0l0 -9.859375l1.5 0l0 1.390625q0.453125 -0.71875 1.21875 -1.15625q0.78125 -0.453125 1.765625 -0.453125q1.09375 0 1.796875 0.453125q0.703125 0.453125 0.984375 1.28125q1.171875 -1.734375 3.046875 -1.734375q1.46875 0 2.25 0.8125q0.796875 0.8125 0.796875 2.5l0 6.765625l-1.671875 0l0 -6.203125q0 -1.0 -0.15625 -1.4375q-0.15625 -0.453125 -0.59375 -0.71875q-0.421875 -0.265625 -1.0 -0.265625q-1.03125 0 -1.71875 0.6875q-0.6875 0.6875 -0.6875 2.21875l0 5.71875l-1.671875 0l0 -6.40625q0 -1.109375 -0.40625 -1.65625q-0.40625 -0.5625 -1.34375 -0.5625q-0.703125 0 -1.3125 0.375q-0.59375 0.359375 -0.859375 1.078125q-0.265625 0.71875 -0.265625 2.0625l0 5.109375l-1.671875 0zm22.290802 -3.171875l1.71875 0.21875q-0.40625 1.5 -1.515625 2.34375q-1.09375 0.828125 -2.8125 0.828125q-2.15625 0 -3.421875 -1.328125q-1.265625 -1.328125 -1.265625 -3.734375q0 -2.484375 1.265625 -3.859375q1.28125 -1.375 3.328125 -1.375q1.984375 0 3.234375 1.34375q1.25 1.34375 1.25 3.796875q0 0.140625 -0.015625 0.4375l-7.34375 0q0.09375 1.625 0.921875 2.484375q0.828125 0.859375 2.0625 0.859375q0.90625 0 1.546875 -0.46875q0.65625 -0.484375 1.046875 -1.546875zm-5.484375 -2.703125l5.5 0q-0.109375 -1.234375 -0.625 -1.859375q-0.796875 -0.96875 -2.078125 -0.96875q-1.140625 0 -1.9375 0.78125q-0.78125 0.765625 -0.859375 2.046875zm14.605896 5.875l0 -13.59375l9.171875 0l0 1.59375l-7.375 0l0 4.21875l6.375 0l0 1.609375l-6.375 0l0 6.171875l-1.796875 0zm11.099106 -11.6875l0 -1.90625l1.671875 0l0 1.90625l-1.671875 0zm0 11.6875l0 -9.859375l1.671875 0l0 9.859375l-1.671875 0zm4.113571 0l0 -9.859375l1.5 0l0 1.5q0.578125 -1.046875 1.0625 -1.375q0.484375 -0.34375 1.078125 -0.34375q0.84375 0 1.71875 0.546875l-0.578125 1.546875q-0.609375 -0.359375 -1.234375 -0.359375q-0.546875 0 -0.984375 0.328125q-0.421875 0.328125 -0.609375 0.90625q-0.28125 0.890625 -0.28125 1.953125l0 5.15625l-1.671875 0zm12.978302 -3.171875l1.71875 0.21875q-0.40625 1.5 -1.515625 2.34375q-1.09375 0.828125 -2.8125 0.828125q-2.15625 0 -3.421875 -1.328125q-1.265625 -1.328125 -1.265625 -3.734375q0 -2.484375 1.265625 -3.859375q1.28125 -1.375 3.328125 -1.375q1.984375 0 3.234375 1.34375q1.25 1.34375 1.25 3.796875q0 0.140625 -0.015625 0.4375l-7.34375 0q0.09375 1.625 0.921875 2.484375q0.828125 0.859375 2.0625 0.859375q0.90625 0 1.546875 -0.46875q0.65625 -0.484375 1.046875 -1.546875zm-5.484375 -2.703125l5.5 0q-0.109375 -1.234375 -0.625 -1.859375q-0.796875 -0.96875 -2.078125 -0.96875q-1.140625 0 -1.9375 0.78125q-0.78125 0.765625 -0.859375 2.046875z" fill-rule="nonzero"></path><path fill="#cfe2f3" d="m46.44882 251.94537l0 0c0 -13.458054 10.909901 -24.36795 24.367939 -24.36795l97.46884 0l0 0c6.462784 0 12.660858 2.567337 17.230743 7.137207c4.56987 4.5698853 7.137207 10.76796 7.137207 17.230743l0 416.9649c0 13.458008 -10.909912 24.36792 -24.36795 24.36792l-97.46884 0c-13.458038 0 -24.367939 -10.909912 -24.367939 -24.36792z" fill-rule="nonzero"></path><path stroke="#000000" stroke-width="2.0" stroke-linejoin="round" stroke-linecap="butt" d="m46.44882 251.94537l0 0c0 -13.458054 10.909901 -24.36795 24.367939 -24.36795l97.46884 0l0 0c6.462784 0 12.660858 2.567337 17.230743 7.137207c4.56987 4.5698853 7.137207 10.76796 7.137207 17.230743l0 416.9649c0 13.458008 -10.909912 24.36792 -24.36795 24.36792l-97.46884 0c-13.458038 0 -24.367939 -10.909912 -24.367939 -24.36792z" fill-rule="nonzero"></path></g></svg>

